<svg width="32" height="32" viewBox="0 0 32 32" fill="none" xmlns="http://www.w3.org/2000/svg">
  <!-- Background circle with gradient -->
  <defs>
    <linearGradient id="logoGradient" x1="0%" y1="0%" x2="100%" y2="100%">
      <stop offset="0%" style="stop-color:#3B82F6;stop-opacity:1" />
      <stop offset="100%" style="stop-color:#8B5CF6;stop-opacity:1" />
    </linearGradient>
  </defs>

  <!-- Main circle background -->
  <circle cx="16" cy="16" r="15" fill="url(#logoGradient)" stroke="#1E293B" stroke-width="2"/>

  <!-- Brain/Neural network inspired design -->
  <!-- Central node -->
  <circle cx="16" cy="16" r="2.5" fill="white"/>

  <!-- Neural connections -->
  <g stroke="white" stroke-width="1.5" stroke-linecap="round">
    <!-- Top connections -->
    <line x1="16" y1="13.5" x2="12" y2="8" />
    <line x1="16" y1="13.5" x2="20" y2="8" />
    <line x1="16" y1="13.5" x2="16" y2="6" />

    <!-- Bottom connections -->
    <line x1="16" y1="18.5" x2="12" y2="24" />
    <line x1="16" y1="18.5" x2="20" y2="24" />
    <line x1="16" y1="18.5" x2="16" y2="26" />

    <!-- Side connections -->
    <line x1="13.5" y1="16" x2="6" y2="16" />
    <line x1="18.5" y1="16" x2="26" y2="16" />
  </g>

  <!-- Outer nodes -->
  <g fill="white">
    <circle cx="12" cy="8" r="1.5"/>
    <circle cx="20" cy="8" r="1.5"/>
    <circle cx="16" cy="6" r="1.5"/>
    <circle cx="12" cy="24" r="1.5"/>
    <circle cx="20" cy="24" r="1.5"/>
    <circle cx="16" cy="26" r="1.5"/>
    <circle cx="6" cy="16" r="1.5"/>
    <circle cx="26" cy="16" r="1.5"/>
  </g>
</svg>
